<svg width="99" height="152" viewBox="0 0 99 152" xmlns="http://www.w3.org/2000/svg">
<path d="M15 29.5L3 16.5" stroke="#FFE500" stroke-width="8"/>
<path d="M83.5 30L95.5 17" stroke="#FFE500" stroke-width="8"/>
<path d="M48.9853 18.6777L49.6924 1" stroke="#FFE500" stroke-width="8"/>
<path d="M30.5836 119.666C32.8549 121.408 36.1232 122.166 38.7605 122.166C42.5938 122.166 57.0605 122.166 60.2605 122.166C63.1954 122.166 64.9244 121.046 66.0542 119.666M30.5836 119.666C29.5535 118.875 28.7285 117.882 28.2605 116.666C26.2605 111.466 26.8997 101 24.4999 94.9999C22.1001 88.9999 7.78444 74.6659 10.9999 55.6658C17.3742 18.0001 78 19.0001 85 55.6658C88.4048 73.5 73.3057 89.9999 71.5001 94.9999C69.3335 101 69.7605 112.166 67.7605 116.666C67.3475 117.595 66.8491 118.695 66.0542 119.666M30.5836 119.666C30.9759 126.999 32.9665 134.9 34.1665 142.5C41.6665 149.5 55.6665 149.5 63.6665 142.5L66.0542 119.666" stroke="#FFE500" stroke-width="8"/>
</svg>
